<svg width="24" height="24" viewBox="0 0 24 24" fill="none" xmlns="http://www.w3.org/2000/svg">
    <path d="M0 14.7095V17.8837C0 19.1998 1.04516 20.1288 2.32258 20.1288H21.6774C22.9548 20.1288 24 19.1998 24 17.8837V14.7095H0Z" fill="#1EB53A"/>
    <path d="M21.6774 3.87109H2.32258C1.04516 3.87109 0 4.80013 0 6.11626V9.29045H24V6.11626C24 4.80013 22.9548 3.87109 21.6774 3.87109Z" fill="#0099B5"/>
    <path d="M24 9.29053H0V14.7099H24V9.29053Z" fill="white"/>
    <path d="M24 8.90332H0V9.29042H24V8.90332Z" fill="#CE1126"/>
    <path d="M24 14.7095H0V15.0966H24V14.7095Z" fill="#CE1126"/>
    <path d="M3.63842 4.95473C3.561 4.95473 3.48358 4.91602 3.40616 4.91602C2.59326 4.91602 1.89648 5.57408 1.89648 6.42569C1.89648 7.27731 2.55455 7.93537 3.40616 7.93537C3.48358 7.93537 3.561 7.93537 3.63842 7.89666C2.94164 7.78053 2.39971 7.16118 2.39971 6.42569C2.39971 5.6515 2.94164 5.07085 3.63842 4.95473Z" fill="white"/>
    <path d="M4.37378 7.50946L4.29636 7.31592L4.21894 7.50946H4.02539L4.18023 7.6643L4.14152 7.85785L4.29636 7.74172L4.48991 7.85785L4.41249 7.6643L4.60604 7.50946H4.37378Z" fill="white"/>
    <path d="M5.57397 7.50946L5.49655 7.31592L5.41913 7.50946H5.22559L5.38042 7.6643L5.34172 7.85785L5.49655 7.74172L5.6901 7.85785L5.61268 7.6643L5.76752 7.50946H5.57397Z" fill="white"/>
    <path d="M6.77417 7.50946L6.69675 7.31592L6.61933 7.50946H6.42578L6.58062 7.6643L6.5032 7.85785L6.69675 7.74172L6.8903 7.85785L6.81288 7.6643L6.96772 7.50946H6.77417Z" fill="white"/>
    <path d="M7.97436 7.50946L7.89694 7.31592L7.81952 7.50946H7.62598L7.78082 7.6643L7.7034 7.85785L7.89694 7.74172L8.09049 7.85785L8.01307 7.6643L8.16791 7.50946H7.97436Z" fill="white"/>
    <path d="M9.17358 7.50946L9.09616 7.31592L9.01874 7.50946H8.8252L8.98003 7.6643L8.90261 7.85785L9.09616 7.74172L9.251 7.85785L9.21229 7.6643L9.36713 7.50946H9.17358Z" fill="white"/>
    <path d="M5.49655 6.11621L5.45784 6.30976H5.22559L5.41913 6.4646L5.34172 6.65814L5.49655 6.54202L5.6901 6.65814L5.61268 6.4646L5.80623 6.30976H5.57397L5.49655 6.11621Z" fill="white"/>
    <path d="M6.69675 6.11621L6.65804 6.30976H6.42578L6.61933 6.4646L6.54191 6.65814L6.69675 6.54202L6.8903 6.65814L6.81288 6.4646L7.00642 6.30976H6.77417L6.69675 6.11621Z" fill="white"/>
    <path d="M7.89694 6.11621L7.85823 6.30976H7.62598L7.81952 6.4646L7.74211 6.65814L7.89694 6.54202L8.09049 6.65814L8.01307 6.4646L8.20662 6.30976H7.97436L7.89694 6.11621Z" fill="white"/>
    <path d="M9.17358 6.30976L9.09616 6.11621L9.05745 6.30976H8.8252L8.98003 6.4646L8.94132 6.65814L9.09616 6.54202L9.28971 6.65814L9.21229 6.4646L9.40584 6.30976H9.17358Z" fill="white"/>
    <path d="M6.58027 5.2644L6.50285 5.45795L6.69639 5.34182L6.85123 5.45795L6.81252 5.2644L6.96736 5.10956H6.77381L6.69639 4.91602L6.61898 5.10956H6.38672L6.58027 5.2644Z" fill="white"/>
    <path d="M7.78046 5.2644L7.70304 5.45795L7.89659 5.34182L8.05143 5.45795L8.01272 5.2644L8.16756 5.10956H7.97401L7.89659 4.91602L7.81917 5.10956H7.58691L7.78046 5.2644Z" fill="white"/>
    <path d="M8.98066 5.2644L8.90324 5.45795L9.09679 5.34182L9.25162 5.45795L9.21291 5.2644L9.36775 5.10956H9.1355L9.09679 4.91602L9.01937 5.10956H8.78711L8.98066 5.2644Z" fill="white"/>
</svg>
