<svg width="375" height="812" viewBox="0 0 375 812" fill="none" xmlns="http://www.w3.org/2000/svg">
    <g clip-path="url(#clip0_1_916)">
        <rect width="375" height="812" fill="white"/>
        <rect x="121" y="799" width="134" height="5" rx="2.5" fill="#9E9EA5"/>
        <path d="M-18.9502 420C121.35 501.768 198.056 733.44 51.1216 734.653C-75.5084 735.698 -93.3567 474.908 145.809 556.23C337.141 621.287 392.079 978.902 395.631 1149.58" stroke="black" stroke-opacity="0.08"/>
        <g filter="url(#filter0_f_1_916)">
            <rect x="325" y="103" width="100" height="100" rx="50" stroke="#FFE054" stroke-width="4"/>
        </g>
        <g filter="url(#filter1_f_1_916)">
            <rect x="56.5" y="91.5" width="9" height="9" rx="4.5" stroke="#65B136" stroke-width="9"/>
        </g>
        <path d="M188.833 735.334C189.938 735.334 190.998 734.895 191.78 734.113C192.561 733.332 193 732.272 193 731.167C193 730.062 192.561 729.002 191.78 728.221C190.998 727.439 189.938 727 188.833 727C187.728 727 186.668 727.439 185.887 728.221C185.106 729.002 184.667 730.062 184.667 731.167C184.667 732.272 185.106 733.332 185.887 734.113C186.668 734.895 187.728 735.334 188.833 735.334ZM188.833 757C189.496 757 190.132 756.737 190.601 756.268C191.07 755.799 191.333 755.164 191.333 754.5C191.333 753.837 191.07 753.202 190.601 752.733C190.132 752.264 189.496 752 188.833 752C188.17 752 187.534 752.264 187.066 752.733C186.597 753.202 186.333 753.837 186.333 754.5C186.333 755.164 186.597 755.799 187.066 756.268C187.534 756.737 188.17 757 188.833 757ZM180.5 755.334C180.828 755.334 181.153 755.269 181.457 755.144C181.76 755.018 182.036 754.834 182.268 754.602C182.5 754.369 182.684 754.094 182.81 753.791C182.935 753.487 183 753.162 183 752.834C183 752.506 182.935 752.18 182.81 751.877C182.684 751.574 182.5 751.298 182.268 751.066C182.036 750.834 181.76 750.65 181.457 750.524C181.153 750.398 180.828 750.334 180.5 750.334C180.172 750.334 179.847 750.398 179.543 750.524C179.24 750.65 178.964 750.834 178.732 751.066C178.5 751.298 178.316 751.574 178.19 751.877C178.065 752.18 178 752.506 178 752.834C178 753.162 178.065 753.487 178.19 753.791C178.316 754.094 178.5 754.369 178.732 754.602C178.964 754.834 179.24 755.018 179.543 755.144C179.847 755.269 180.172 755.334 180.5 755.334ZM175.5 747C176.163 747 176.799 746.737 177.268 746.268C177.737 745.799 178 745.164 178 744.5C178 743.837 177.737 743.202 177.268 742.733C176.799 742.264 176.163 742 175.5 742C174.837 742 174.201 742.264 173.732 742.733C173.263 743.202 173 743.837 173 744.5C173 745.164 173.263 745.799 173.732 746.268C174.201 746.737 174.837 747 175.5 747ZM178 738.667C178.884 738.667 179.732 738.316 180.357 737.691C180.982 737.066 181.333 736.218 181.333 735.334C181.333 734.45 180.982 733.602 180.357 732.977C179.732 732.352 178.884 732 178 732C177.116 732 176.268 732.352 175.643 732.977C175.018 733.602 174.667 734.45 174.667 735.334C174.667 736.218 175.018 737.066 175.643 737.691C176.268 738.316 177.116 738.667 178 738.667ZM201.333 745.334C201.775 745.334 202.199 745.158 202.512 744.846C202.824 744.533 203 744.109 203 743.667C203 743.225 202.824 742.801 202.512 742.489C202.199 742.176 201.775 742 201.333 742C200.891 742 200.467 742.176 200.155 742.489C199.842 742.801 199.667 743.225 199.667 743.667C199.667 744.109 199.842 744.533 200.155 744.846C200.467 745.158 200.891 745.334 201.333 745.334ZM198 753.667C198.442 753.667 198.866 753.492 199.179 753.179C199.491 752.866 199.667 752.443 199.667 752C199.667 751.558 199.491 751.135 199.179 750.822C198.866 750.509 198.442 750.334 198 750.334C197.558 750.334 197.134 750.509 196.821 750.822C196.509 751.135 196.333 751.558 196.333 752C196.333 752.443 196.509 752.866 196.821 753.179C197.134 753.492 197.558 753.667 198 753.667ZM198 737C198.442 737 198.866 736.825 199.179 736.512C199.491 736.2 199.667 735.776 199.667 735.334C199.667 734.892 199.491 734.468 199.179 734.155C198.866 733.843 198.442 733.667 198 733.667C197.558 733.667 197.134 733.843 196.821 734.155C196.509 734.468 196.333 734.892 196.333 735.334C196.333 735.776 196.509 736.2 196.821 736.512C197.134 736.825 197.558 737 198 737Z" fill="#F0CB23"/>
        <path d="M112.95 405.385C112.95 404.025 114.052 402.923 115.412 402.923H125.258C126.617 402.923 127.719 404.025 127.719 405.385V427.539C127.719 428.898 126.617 430 125.258 430H115.412C114.052 430 112.95 428.898 112.95 427.539V405.385Z" fill="#292929"/>
        <path d="M112.95 389.385C112.95 385.306 116.256 382 120.335 382C124.413 382 127.719 385.306 127.719 389.385C127.719 393.463 124.413 396.769 120.335 396.769C116.256 396.769 112.95 393.463 112.95 389.385Z" fill="#292929"/>
        <path d="M133.874 384.462C133.874 383.102 134.976 382 136.336 382H157.259C163.036 382 167.72 386.684 167.72 392.462C167.72 398.239 163.036 402.923 157.259 402.923H136.336C134.976 402.923 133.874 401.821 133.874 400.461V384.462Z" fill="#292929"/>
        <path fill-rule="evenodd" clip-rule="evenodd" d="M154.797 392.462C154.797 391.102 155.899 390 157.258 390L157.24 390C166.076 390 173.24 397.163 173.24 406C173.24 414.836 166.076 422 157.24 422L157.258 422C155.899 422 154.797 420.898 154.797 419.538C154.797 418.179 155.899 417.077 157.258 417.077L157.24 417.077C163.357 417.077 168.317 412.118 168.317 406C168.317 399.882 163.357 394.923 157.24 394.923L157.258 394.923C155.899 394.923 154.797 393.821 154.797 392.462Z" fill="#FFE054"/>
        <path d="M133.874 427.538C133.874 428.898 134.976 430 136.336 430H157.259C163.036 430 167.72 425.316 167.72 419.538C167.72 413.761 163.036 409.077 157.259 409.077H136.336C134.976 409.077 133.874 410.179 133.874 411.539V427.538Z" fill="#474747"/>
        <path d="M154.797 419.538C154.797 418.179 155.899 417.077 157.258 417.077C158.618 417.077 159.72 418.179 159.72 419.538C159.72 420.898 158.618 422 157.258 422C155.899 422 154.797 420.898 154.797 419.538Z" fill="#FFE054"/>
        <path d="M201.781 403.103H196.909C196.432 403.103 196.168 403.421 196.115 403.898L195.956 406.334C193.996 404.11 191.349 402.521 188.066 402.521C180.811 402.521 175.516 408.558 175.516 416.13C175.516 423.702 180.811 429.739 188.066 429.739C191.455 429.739 194.049 428.204 195.903 426.032L196.115 428.256C196.168 428.733 196.432 429.051 196.909 429.051H201.781C202.257 429.051 202.575 428.733 202.575 428.256V403.898C202.575 403.421 202.257 403.103 201.781 403.103ZM188.913 423.385C185.047 423.385 182.241 420.26 182.241 416.077C182.241 411.947 185.047 408.875 188.913 408.875C192.726 408.875 195.532 412.159 195.532 416.077C195.532 419.996 192.726 423.385 188.913 423.385Z" fill="#292929"/>
        <path d="M231.543 403.898C231.543 403.421 231.225 403.103 230.749 403.103H210.414C209.938 403.103 209.62 403.421 209.62 403.898V408.028C209.62 408.505 209.938 408.822 210.414 408.822H223.176L209.991 422.908C209.726 423.173 209.62 423.544 209.62 423.914V428.256C209.62 428.733 209.938 429.051 210.414 429.051H230.749C231.225 429.051 231.543 428.733 231.543 428.256V424.126C231.543 423.65 231.225 423.332 230.749 423.332H218.04L231.172 409.246C231.437 408.981 231.543 408.611 231.543 408.24V403.898Z" fill="#292929"/>
        <path d="M261.273 403.103H256.401C255.925 403.103 255.66 403.421 255.607 403.898L255.448 406.334C253.489 404.11 250.841 402.521 247.558 402.521C240.303 402.521 235.008 408.558 235.008 416.13C235.008 423.702 240.303 429.739 247.558 429.739C250.947 429.739 253.542 428.204 255.395 426.032L255.607 428.256C255.66 428.733 255.925 429.051 256.401 429.051H261.273C261.75 429.051 262.067 428.733 262.067 428.256V403.898C262.067 403.421 261.75 403.103 261.273 403.103ZM248.405 423.385C244.54 423.385 241.733 420.26 241.733 416.077C241.733 411.947 244.54 408.875 248.405 408.875C252.218 408.875 255.024 412.159 255.024 416.077C255.024 419.996 252.218 423.385 248.405 423.385Z" fill="#292929"/>
        <path opacity="0.35" d="M336.5 19.9997C336.5 18.8031 337.47 17.833 338.667 17.833H355.333C356.53 17.833 357.5 18.8031 357.5 19.9997V25.9997C357.5 27.1963 356.53 28.1663 355.333 28.1663H338.667C337.47 28.1663 336.5 27.1963 336.5 25.9997V19.9997Z" stroke="#383838"/>
        <path opacity="0.4" d="M359 20.9995V24.9995C359.805 24.6607 360.328 23.8726 360.328 22.9995C360.328 22.1264 359.805 21.3383 359 20.9995Z" fill="#383838"/>
        <path d="M338 20.6663C338 19.93 338.597 19.333 339.333 19.333H354.667C355.403 19.333 356 19.93 356 20.6663V25.333C356 26.0694 355.403 26.6663 354.667 26.6663H339.333C338.597 26.6663 338 26.0694 338 25.333V20.6663Z" fill="#383838"/>
        <path fill-rule="evenodd" clip-rule="evenodd" d="M323.331 19.6079C325.547 19.608 327.678 20.4594 329.284 21.9862C329.405 22.1041 329.598 22.1026 329.717 21.9829L330.873 20.8162C330.934 20.7555 330.967 20.6733 330.967 20.5877C330.966 20.5021 330.932 20.4202 330.871 20.3602C326.656 16.3207 320.006 16.3207 315.791 20.3602C315.73 20.4202 315.695 20.502 315.694 20.5876C315.694 20.6732 315.727 20.7555 315.788 20.8162L316.944 21.9829C317.063 22.1028 317.256 22.1043 317.377 21.9862C318.983 20.4593 321.115 19.6079 323.331 19.6079ZM323.331 23.4036C324.548 23.4035 325.722 23.856 326.625 24.6732C326.747 24.7892 326.939 24.7867 327.058 24.6676L328.213 23.5009C328.274 23.4397 328.307 23.3567 328.307 23.2704C328.306 23.1842 328.27 23.1018 328.208 23.0419C325.46 20.4855 321.204 20.4855 318.456 23.0419C318.394 23.1018 318.358 23.1842 318.358 23.2705C318.357 23.3568 318.391 23.4398 318.452 23.5009L319.606 24.6676C319.725 24.7867 319.917 24.7892 320.039 24.6732C320.941 23.8566 322.114 23.4041 323.331 23.4036ZM325.644 25.9574C325.646 26.0439 325.612 26.1273 325.55 26.1879L323.553 28.2036C323.494 28.2628 323.414 28.2961 323.331 28.2961C323.248 28.2961 323.168 28.2628 323.109 28.2036L321.112 26.1879C321.05 26.1272 321.016 26.0438 321.018 25.9573C321.02 25.8708 321.057 25.7889 321.121 25.7309C322.397 24.652 324.265 24.652 325.541 25.7309C325.605 25.7889 325.642 25.8709 325.644 25.9574Z" fill="#383838"/>
        <path fill-rule="evenodd" clip-rule="evenodd" d="M309.667 17.6665H308.667C308.115 17.6665 307.667 18.1142 307.667 18.6665V27.3332C307.667 27.8855 308.115 28.3332 308.667 28.3332H309.667C310.219 28.3332 310.667 27.8855 310.667 27.3332V18.6665C310.667 18.1142 310.219 17.6665 309.667 17.6665ZM304 19.9998H305C305.553 19.9998 306 20.4476 306 20.9998V27.3332C306 27.8855 305.553 28.3332 305 28.3332H304C303.448 28.3332 303 27.8855 303 27.3332V20.9998C303 20.4476 303.448 19.9998 304 19.9998ZM300.334 22.3332H299.334C298.781 22.3332 298.334 22.7809 298.334 23.3332V27.3332C298.334 27.8855 298.781 28.3332 299.334 28.3332H300.334C300.886 28.3332 301.334 27.8855 301.334 27.3332V23.3332C301.334 22.7809 300.886 22.3332 300.334 22.3332ZM295.667 24.3332H294.667C294.115 24.3332 293.667 24.7809 293.667 25.3332V27.3332C293.667 27.8855 294.115 28.3332 294.667 28.3332H295.667C296.219 28.3332 296.667 27.8855 296.667 27.3332V25.3332C296.667 24.7809 296.219 24.3332 295.667 24.3332Z" fill="#383838"/>
        <path d="M37.3203 28.2563C40.0083 28.2563 41.605 26.1543 41.605 22.5947C41.605 21.2544 41.3486 20.1265 40.8579 19.2549C40.1475 17.8999 38.9243 17.1675 37.3789 17.1675C35.0791 17.1675 33.4531 18.7129 33.4531 20.8809C33.4531 22.917 34.918 24.3965 36.9321 24.3965C38.1699 24.3965 39.1733 23.8179 39.6714 22.8145H39.6934C39.6934 22.8145 39.7227 22.8145 39.73 22.8145C39.7446 22.8145 39.7959 22.8145 39.7959 22.8145C39.7959 25.2314 38.8804 26.6743 37.335 26.6743C36.4268 26.6743 35.7236 26.1763 35.4819 25.3779H33.5996C33.9146 27.1138 35.3867 28.2563 37.3203 28.2563ZM37.3862 22.895C36.1704 22.895 35.3062 22.0308 35.3062 20.8223C35.3062 19.6431 36.2144 18.7422 37.3936 18.7422C38.5728 18.7422 39.481 19.6577 39.481 20.8516C39.481 22.0308 38.5947 22.895 37.3862 22.895Z" fill="#383838"/>
        <path d="M44.6961 28.1538C45.3919 28.1538 45.868 27.6558 45.868 26.9966C45.868 26.3301 45.3919 25.8394 44.6961 25.8394C44.0076 25.8394 43.5242 26.3301 43.5242 26.9966C43.5242 27.6558 44.0076 28.1538 44.6961 28.1538ZM44.6961 22.6606C45.3919 22.6606 45.868 22.1699 45.868 21.5107C45.868 20.8442 45.3919 20.3535 44.6961 20.3535C44.0076 20.3535 43.5242 20.8442 43.5242 21.5107C43.5242 22.1699 44.0076 22.6606 44.6961 22.6606Z" fill="#383838"/>
        <path d="M52.7237 28H54.5328V26.0298H55.961V24.4331H54.5328V17.4312H51.8668C49.9991 20.2437 48.5123 22.5947 47.5602 24.3452V26.0298H52.7237V28ZM49.3106 24.3672C50.5411 22.1992 51.6397 20.4634 52.6505 18.9692H52.753V24.4771H49.3106V24.3672Z" fill="#383838"/>
        <path d="M59.9896 28H61.8793V17.4312H59.997L57.2357 19.3647V21.1812L59.8651 19.3354H59.9896V28Z" fill="#383838"/>
    </g>
    <defs>
        <filter id="filter0_f_1_916" x="299" y="77" width="152" height="152" filterUnits="userSpaceOnUse" color-interpolation-filters="sRGB">
            <feFlood flood-opacity="0" result="BackgroundImageFix"/>
            <feBlend mode="normal" in="SourceGraphic" in2="BackgroundImageFix" result="shape"/>
            <feGaussianBlur stdDeviation="12" result="effect1_foregroundBlur_1_916"/>
        </filter>
        <filter id="filter1_f_1_916" x="28" y="63" width="66" height="66" filterUnits="userSpaceOnUse" color-interpolation-filters="sRGB">
            <feFlood flood-opacity="0" result="BackgroundImageFix"/>
            <feBlend mode="normal" in="SourceGraphic" in2="BackgroundImageFix" result="shape"/>
            <feGaussianBlur stdDeviation="12" result="effect1_foregroundBlur_1_916"/>
        </filter>
        <clipPath id="clip0_1_916">
            <rect width="375" height="812" fill="white"/>
        </clipPath>
    </defs>
</svg>
