<svg width="40" height="40" viewBox="0 0 40 40" fill="none" xmlns="http://www.w3.org/2000/svg">
    <path d="M20.8333 13.3338C21.9384 13.3338 22.9982 12.8948 23.7796 12.1134C24.561 11.332 25 10.2722 25 9.16716C25 8.06209 24.561 7.00228 23.7796 6.22088C22.9982 5.43947 21.9384 5.00049 20.8333 5.00049C19.7283 5.00049 18.6685 5.43948 17.8871 6.22088C17.1057 7.00228 16.6667 8.06209 16.6667 9.16716C16.6667 10.2722 17.1057 11.332 17.8871 12.1134C18.6685 12.8948 19.7283 13.3338 20.8333 13.3338ZM20.8333 35.0005C21.4964 35.0005 22.1323 34.7371 22.6011 34.2683C23.0699 33.7994 23.3333 33.1635 23.3333 32.5005C23.3333 31.8375 23.0699 31.2016 22.6011 30.7327C22.1323 30.2639 21.4964 30.0005 20.8333 30.0005C20.1703 30.0005 19.5344 30.2639 19.0656 30.7327C18.5967 31.2016 18.3333 31.8375 18.3333 32.5005C18.3333 33.1635 18.5967 33.7994 19.0656 34.2683C19.5344 34.7371 20.1703 35.0005 20.8333 35.0005ZM12.5 33.3338C12.8283 33.3338 13.1534 33.2692 13.4567 33.1435C13.76 33.0179 14.0356 32.8337 14.2678 32.6016C14.4999 32.3694 14.6841 32.0939 14.8097 31.7905C14.9353 31.4872 15 31.1621 15 30.8338C15 30.5055 14.9353 30.1804 14.8097 29.8771C14.6841 29.5738 14.4999 29.2982 14.2678 29.0661C14.0356 28.8339 13.76 28.6498 13.4567 28.5241C13.1534 28.3985 12.8283 28.3338 12.5 28.3338C12.1717 28.3338 11.8466 28.3985 11.5433 28.5241C11.24 28.6498 10.9644 28.8339 10.7322 29.0661C10.5001 29.2982 10.3159 29.5738 10.1903 29.8771C10.0647 30.1804 10 30.5055 10 30.8338C10 31.1621 10.0647 31.4872 10.1903 31.7905C10.3159 32.0939 10.5001 32.3694 10.7322 32.6016C10.9644 32.8337 11.24 33.0179 11.5433 33.1435C11.8466 33.2692 12.1717 33.3338 12.5 33.3338ZM7.5 25.0005C8.16304 25.0005 8.79893 24.7371 9.26777 24.2683C9.73661 23.7994 10 23.1635 10 22.5005C10 21.8375 9.73661 21.2016 9.26777 20.7327C8.79892 20.2639 8.16304 20.0005 7.5 20.0005C6.83696 20.0005 6.20108 20.2639 5.73223 20.7327C5.26339 21.2016 5 21.8375 5 22.5005C5 23.1635 5.26339 23.7994 5.73223 24.2683C6.20108 24.7371 6.83696 25.0005 7.5 25.0005ZM10 16.6672C10.8841 16.6672 11.7319 16.316 12.357 15.6908C12.9821 15.0657 13.3333 14.2179 13.3333 13.3338C13.3333 12.4498 12.9821 11.6019 12.357 10.9768C11.7319 10.3517 10.8841 10.0005 10 10.0005C9.11594 10.0005 8.2681 10.3517 7.64298 10.9768C7.01786 11.6019 6.66667 12.4498 6.66667 13.3338C6.66667 14.2179 7.01786 15.0657 7.64298 15.6908C8.2681 16.316 9.11594 16.6672 10 16.6672ZM33.3333 23.3338C33.7754 23.3338 34.1993 23.1582 34.5118 22.8457C34.8244 22.5331 35 22.1092 35 21.6672C35 21.2251 34.8244 20.8012 34.5118 20.4886C34.1993 20.1761 33.7754 20.0005 33.3333 20.0005C32.8913 20.0005 32.4674 20.1761 32.1548 20.4886C31.8423 20.8012 31.6667 21.2251 31.6667 21.6672C31.6667 22.1092 31.8423 22.5331 32.1548 22.8457C32.4674 23.1582 32.8913 23.3338 33.3333 23.3338ZM30 31.6672C30.442 31.6672 30.866 31.4916 31.1785 31.179C31.4911 30.8664 31.6667 30.4425 31.6667 30.0005C31.6667 29.5585 31.4911 29.1345 31.1785 28.822C30.866 28.5094 30.442 28.3338 30 28.3338C29.558 28.3338 29.1341 28.5094 28.8215 28.822C28.5089 29.1345 28.3333 29.5585 28.3333 30.0005C28.3333 30.4425 28.5089 30.8664 28.8215 31.179C29.1341 31.4916 29.558 31.6672 30 31.6672ZM30 15.0005C30.442 15.0005 30.866 14.8249 31.1785 14.5123C31.4911 14.1998 31.6667 13.7758 31.6667 13.3338C31.6667 12.8918 31.4911 12.4679 31.1785 12.1553C30.866 11.8427 30.442 11.6672 30 11.6672C29.558 11.6672 29.1341 11.8427 28.8215 12.1553C28.5089 12.4679 28.3333 12.8918 28.3333 13.3338C28.3333 13.7759 28.5089 14.1998 28.8215 14.5123C29.1341 14.8249 29.558 15.0005 30 15.0005Z" fill="#F0CB23"/>
</svg>
