<svg xmlns="http://www.w3.org/2000/svg" width="151" height="48" viewBox="0 0 151 48" fill="none">
    <path d="M0.950195 23.3849C0.950195 22.0254 2.05226 20.9233 3.41173 20.9233H13.2579C14.6173 20.9233 15.7194 22.0254 15.7194 23.3849V45.5387C15.7194 46.8981 14.6173 48.0002 13.2579 48.0002H3.41172C2.05226 48.0002 0.950195 46.8981 0.950195 45.5387V23.3849Z" fill="#292929"/>
    <path d="M0.950195 7.3846C0.950195 3.3062 4.25639 0 8.33479 0C12.4132 0 15.7194 3.3062 15.7194 7.3846C15.7194 11.463 12.4132 14.7692 8.33479 14.7692C4.25639 14.7692 0.950195 11.463 0.950195 7.3846Z" fill="#292929"/>
    <path d="M21.874 2.46153C21.874 1.10207 22.9761 0 24.3356 0H45.2586C51.0363 0 55.7201 4.68378 55.7201 10.4615C55.7201 16.2392 51.0363 20.923 45.2586 20.923H24.3356C22.9761 20.923 21.874 19.821 21.874 18.4615V2.46153Z" fill="#292929"/>
    <path fill-rule="evenodd" clip-rule="evenodd" d="M42.7969 10.4616C42.7969 9.10218 43.8989 8.00011 45.2584 8.00011L45.2398 8C54.0763 8 61.2397 15.1634 61.2397 24C61.2397 32.8365 54.0763 39.9999 45.2398 39.9999L45.2584 40C43.8989 40 42.7969 38.898 42.7969 37.5385C42.7969 36.179 43.8989 35.077 45.2584 35.077L45.2398 35.0768C51.3574 35.0768 56.3167 30.1175 56.3167 24C56.3167 17.8824 51.3574 12.9231 45.2398 12.9231L45.2584 12.9232C43.8989 12.9232 42.7969 11.8211 42.7969 10.4616Z" fill="#FFE054"/>
    <path d="M21.874 45.5385C21.874 46.8979 22.9761 48 24.3356 48H45.2586C51.0363 48 55.7201 43.3162 55.7201 37.5385C55.7201 31.7608 51.0363 27.077 45.2586 27.077H24.3356C22.9761 27.077 21.874 28.179 21.874 29.5385V45.5385Z" fill="#474747"/>
    <path d="M42.7969 37.5382C42.7969 36.1787 43.8989 35.0767 45.2584 35.0767C46.6179 35.0767 47.7199 36.1787 47.7199 37.5382C47.7199 38.8977 46.6179 39.9997 45.2584 39.9997C43.8989 39.9997 42.7969 38.8977 42.7969 37.5382Z" fill="#FFE054"/>
    <path d="M89.7807 21.1035H84.9089C84.4323 21.1035 84.1676 21.4212 84.1146 21.8978L83.9558 24.3337C81.9965 22.1096 79.3488 20.521 76.0657 20.521C68.811 20.521 63.5156 26.5577 63.5156 34.1301C63.5156 41.7025 68.811 47.7392 76.0657 47.7392C79.4547 47.7392 82.0494 46.2035 83.9028 44.0324L84.1146 46.2565C84.1676 46.7331 84.4323 47.0508 84.9089 47.0508H89.7807C90.2572 47.0508 90.575 46.7331 90.575 46.2565V21.8978C90.575 21.4212 90.2572 21.1035 89.7807 21.1035ZM76.9129 41.3848C73.0473 41.3848 70.2407 38.2605 70.2407 34.0771C70.2407 29.9468 73.0473 26.8754 76.9129 26.8754C80.7256 26.8754 83.5321 30.1586 83.5321 34.0771C83.5321 37.9957 80.7256 41.3848 76.9129 41.3848Z" fill="#292929"/>
    <path d="M119.543 21.8978C119.543 21.4212 119.225 21.1035 118.749 21.1035H98.4145C97.9379 21.1035 97.6201 21.4212 97.6201 21.8978V26.0282C97.6201 26.5048 97.9379 26.8225 98.4145 26.8225H111.176L97.9908 40.9082C97.7261 41.1729 97.6201 41.5436 97.6201 41.9143V46.2565C97.6201 46.7331 97.9379 47.0508 98.4145 47.0508H118.749C119.225 47.0508 119.543 46.7331 119.543 46.2565V42.1261C119.543 41.6495 119.225 41.3318 118.749 41.3318H106.04L119.172 27.2461C119.437 26.9814 119.543 26.6107 119.543 26.24V21.8978Z" fill="#292929"/>
    <path d="M149.273 21.1035H144.401C143.925 21.1035 143.66 21.4212 143.607 21.8978L143.448 24.3337C141.489 22.1096 138.841 20.521 135.558 20.521C128.303 20.521 123.008 26.5577 123.008 34.1301C123.008 41.7025 128.303 47.7392 135.558 47.7392C138.947 47.7392 141.542 46.2035 143.395 44.0324L143.607 46.2565C143.66 46.7331 143.925 47.0508 144.401 47.0508H149.273C149.75 47.0508 150.067 46.7331 150.067 46.2565V21.8978C150.067 21.4212 149.75 21.1035 149.273 21.1035ZM136.405 41.3848C132.54 41.3848 129.733 38.2605 129.733 34.0771C129.733 29.9468 132.54 26.8754 136.405 26.8754C140.218 26.8754 143.024 30.1586 143.024 34.0771C143.024 37.9957 140.218 41.3848 136.405 41.3848Z" fill="#292929"/>
</svg>